{"title":"Wolfgang Gartner ft. Will I Am - Forever - 2011 (UJ.rip)","uid":6512285,"size":55144683,"categoryP":"video","categoryS":"music_videos","magnet":"?xt=urn:btih:4c510cf6a9b10a43a6cf5a700ba8c66bcb94a5c1&amp;dn=Wolfgang+Gartner+ft.+Will+I+Am+-+Forever+-+2011+%28UJ.rip%29&amp;tr=udp%3A%2F%2Ftracker.openbittorrent.com%3A80&amp;tr=udp%3A%2F%2Fopen.demonii.com%3A1337&amp;tr=udp%3A%2F%2Ftracker.coppersurfer.tk%3A6969&amp;tr=udp%3A%2F%2Fexodus.desync.com%3A6969","seeders":1,"leechers":0,"uploader":"utpaljoshi123","files":37,"time":1309680762,"description":"Please seed!\n\nWolfgang Gartner feat. Will I Am - Forever.avi\n--------------------------------------------------------\nFormat                           : AVI\nFormat/Info                      : Audio Video Interleave\nFile size                        : 51.7 MiB\nDuration                         : 3mn 48s\nOverall bit rate                 : 1 900 Kbps\nWriting application              : Lavf52.39.1\n\nVideo\nID                               : 0\nFormat                           : MPEG-4 Visual\nFormat profile                   : Advanced Simple@L1\nFormat settings, BVOP            : 2\nFormat settings, QPel            : No\nFormat settings, GMC             : No warppoints\nFormat settings, Matrix          : Default (H.263)\nCodec ID                         : divx\nCodec ID/Info                    : Mainly used by Google\nCodec ID/Hint                    : DivX\nDuration                         : 3mn 48s\nBit rate                         : 1 824 Kbps\nWidth                            : 720 pixels\nHeight                           : 480 pixels\nDisplay aspect ratio             : 3:2\nFrame rate                       : 24.000 fps\nStandard                         : NTSC\nColor space                      : YUV\nChroma subsampling               : 4:2:0\nBit depth                        : 8 bits\nScan type                        : Progressive\nCompression mode                 : Lossy\nBits/(Pixel*Frame)               : 0.220\nStream size                      : 49.6 MiB (96%)\nWriting library                  : Lavc52.37.0\n\nAudio\nID                               : 1\nFormat                           : MPEG Audio\nFormat version                   : Version 1\nFormat profile                   : Layer 3\nMode                             : Joint stereo\nMode extension                   : MS Stereo\nCodec ID                         : 55\nCodec ID/Hint                    : MP3\nDuration                         : 3mn 48s\nBit rate mode                    : Constant\nBit rate                         : 64.0 Kbps\nChannel(s)                       : 2 channels\nSampling rate                    : 44.1 KHz\nCompression mode                 : Lossy\nStream size                      : 1.74 MiB (3%)\nAlignment                        : Aligned on interleaves\nInterleave, duration             : 26 ms (0.63 video frame)\nWriting library                  : LAMEUUULAME3.96.1\n\n------------------------------------------------------------ &lt;a href=&quot;\nhttp://thepiratebay.se/user/utpaljoshi123&quot; rel=&quot;nofollow&quot; target=&quot;_NEW&quot;&gt;\nhttp://thepiratebay.se/user/utpaljoshi123&lt;/a&gt;\n\n","torrent":{"xt":"urn:btih:4c510cf6a9b10a43a6cf5a700ba8c66bcb94a5c1","amp;dn":"Wolfgang+Gartner+ft.+Will+I+Am+-+Forever+-+2011+%28UJ.rip%29","amp;tr":["udp%3A%2F%2Ftracker.openbittorrent.com%3A80","udp%3A%2F%2Fopen.demonii.com%3A1337","udp%3A%2F%2Ftracker.coppersurfer.tk%3A6969","udp%3A%2F%2Fexodus.desync.com%3A6969"],"infoHash":"4c510cf6a9b10a43a6cf5a700ba8c66bcb94a5c1","infoHashBuffer":{"type":"Buffer","data":[76,81,12,246,169,177,10,67,166,207,90,112,11,168,198,107,203,148,165,193]},"announce":[],"urlList":[]}}